<svg width="500" height="500" viewBox="0 0 500 500" fill="none" xmlns="http://www.w3.org/2000/svg">
<rect width="500" height="500" fill="white"/>
<path d="M237.203 163.094C297.79 146.293 357.475 193.384 354.919 256.492L354.497 266.899L354.384 269.707L351.575 269.777L142.075 274.999L139 275.076V191.943L141.154 191.311L235.771 163.502L237.203 163.094Z" fill="#96D228" stroke="black" stroke-width="6"/>
<path d="M242.991 175.721C291.244 162.558 338.714 197.59 340.207 247.466L337.209 247.589L337.299 250.587L157.897 257.896L156.146 199.413L158.456 198.782L242.991 175.721Z" fill="#D3EBA5" stroke="black" stroke-width="6"/>
<path d="M265.922 210C317.284 210 358.922 251.638 358.922 303V336.307H139V210H265.922Z" fill="#007EFF" stroke="black" stroke-width="6"/>
<mask id="mask0_8_87" style="mask-type:alpha" maskUnits="userSpaceOnUse" x="142" y="213" width="214" height="121">
<path d="M142 213H265.922C315.628 213 355.922 253.294 355.922 303V333.307H142V213Z" fill="#FFCC00"/>
</mask>
<g mask="url(#mask0_8_87)">
<rect x="293" y="270" width="66" height="26" fill="#7DBDFF" stroke="black" stroke-width="6"/>
</g>
<circle cx="305.5" cy="283.5" r="2.5" fill="#007EFF" stroke="#007EFF" stroke-width="4"/>
<path d="M187.264 366V351.455H193.088C194.158 351.455 195.051 351.613 195.766 351.93C196.481 352.248 197.018 352.688 197.378 353.251C197.738 353.81 197.918 354.454 197.918 355.183C197.918 355.751 197.804 356.251 197.577 356.682C197.349 357.108 197.037 357.458 196.639 357.733C196.246 358.003 195.796 358.195 195.29 358.308V358.45C195.844 358.474 196.362 358.63 196.845 358.919C197.333 359.208 197.728 359.613 198.031 360.134C198.334 360.65 198.486 361.265 198.486 361.98C198.486 362.752 198.294 363.441 197.911 364.047C197.532 364.648 196.971 365.124 196.227 365.474C195.484 365.825 194.568 366 193.479 366H187.264ZM190.339 363.486H192.847C193.704 363.486 194.329 363.322 194.722 362.996C195.115 362.664 195.311 362.224 195.311 361.675C195.311 361.272 195.214 360.917 195.02 360.609C194.826 360.302 194.549 360.06 194.189 359.885C193.834 359.71 193.41 359.622 192.918 359.622H190.339V363.486ZM190.339 357.541H192.619C193.041 357.541 193.415 357.468 193.741 357.321C194.073 357.17 194.333 356.956 194.523 356.682C194.717 356.407 194.814 356.078 194.814 355.695C194.814 355.169 194.627 354.745 194.253 354.423C193.884 354.101 193.358 353.94 192.676 353.94H190.339V357.541ZM207.426 361.355V355.091H210.451V366H207.547V364.018H207.433C207.187 364.658 206.777 365.171 206.204 365.56C205.636 365.948 204.942 366.142 204.123 366.142C203.394 366.142 202.752 365.976 202.199 365.645C201.645 365.313 201.211 364.842 200.899 364.232C200.591 363.621 200.435 362.889 200.43 362.037V355.091H203.456V361.497C203.46 362.141 203.633 362.65 203.974 363.024C204.315 363.398 204.772 363.585 205.345 363.585C205.709 363.585 206.05 363.502 206.368 363.337C206.685 363.166 206.94 362.915 207.135 362.584C207.333 362.252 207.431 361.843 207.426 361.355ZM216.891 366.178C216.063 366.178 215.312 365.964 214.64 365.538C213.972 365.107 213.442 364.475 213.049 363.642C212.661 362.804 212.467 361.777 212.467 360.56C212.467 359.31 212.668 358.27 213.07 357.442C213.473 356.608 214.008 355.986 214.675 355.574C215.348 355.157 216.084 354.949 216.884 354.949C217.495 354.949 218.004 355.053 218.411 355.261C218.823 355.465 219.155 355.721 219.406 356.028C219.661 356.331 219.855 356.63 219.988 356.923H220.08V351.455H223.099V366H220.116V364.253H219.988C219.846 364.556 219.645 364.857 219.384 365.155C219.129 365.448 218.795 365.692 218.383 365.886C217.976 366.08 217.478 366.178 216.891 366.178ZM217.85 363.77C218.338 363.77 218.75 363.637 219.086 363.372C219.427 363.102 219.687 362.726 219.867 362.243C220.052 361.76 220.144 361.194 220.144 360.545C220.144 359.897 220.054 359.333 219.874 358.855C219.694 358.377 219.434 358.008 219.093 357.747C218.752 357.487 218.338 357.357 217.85 357.357C217.353 357.357 216.934 357.491 216.593 357.761C216.252 358.031 215.994 358.405 215.819 358.884C215.644 359.362 215.556 359.916 215.556 360.545C215.556 361.18 215.644 361.741 215.819 362.229C215.999 362.712 216.257 363.09 216.593 363.365C216.934 363.635 217.353 363.77 217.85 363.77ZM230.501 370.318C229.521 370.318 228.681 370.183 227.98 369.913C227.284 369.648 226.73 369.286 226.318 368.827C225.906 368.367 225.638 367.851 225.515 367.278L228.314 366.902C228.399 367.12 228.534 367.323 228.718 367.513C228.903 367.702 229.147 367.854 229.45 367.967C229.758 368.086 230.132 368.145 230.572 368.145C231.23 368.145 231.772 367.984 232.199 367.662C232.629 367.345 232.845 366.812 232.845 366.064V364.068H232.717C232.584 364.371 232.386 364.658 232.12 364.928C231.855 365.197 231.514 365.418 231.098 365.588C230.681 365.759 230.184 365.844 229.606 365.844C228.787 365.844 228.041 365.654 227.369 365.276C226.701 364.892 226.169 364.307 225.771 363.521C225.378 362.731 225.181 361.732 225.181 360.524C225.181 359.288 225.383 358.256 225.785 357.428C226.188 356.599 226.723 355.979 227.39 355.567C228.063 355.155 228.799 354.949 229.599 354.949C230.21 354.949 230.721 355.053 231.133 355.261C231.545 355.465 231.877 355.721 232.127 356.028C232.383 356.331 232.58 356.63 232.717 356.923H232.831V355.091H235.835V366.107C235.835 367.035 235.608 367.811 235.153 368.436C234.699 369.061 234.069 369.53 233.264 369.842C232.464 370.16 231.543 370.318 230.501 370.318ZM230.565 363.571C231.053 363.571 231.465 363.45 231.801 363.209C232.142 362.963 232.402 362.612 232.582 362.158C232.767 361.698 232.859 361.149 232.859 360.51C232.859 359.871 232.769 359.317 232.589 358.848C232.409 358.375 232.149 358.008 231.808 357.747C231.467 357.487 231.053 357.357 230.565 357.357C230.068 357.357 229.649 357.491 229.308 357.761C228.967 358.027 228.709 358.396 228.534 358.869C228.359 359.343 228.271 359.89 228.271 360.51C228.271 361.14 228.359 361.684 228.534 362.143C228.714 362.598 228.972 362.951 229.308 363.202C229.649 363.448 230.068 363.571 230.565 363.571ZM243.214 366.213C242.092 366.213 241.126 365.986 240.316 365.531C239.511 365.072 238.891 364.423 238.456 363.585C238.02 362.742 237.802 361.746 237.802 360.595C237.802 359.473 238.02 358.488 238.456 357.641C238.891 356.793 239.504 356.133 240.295 355.659C241.091 355.186 242.023 354.949 243.093 354.949C243.813 354.949 244.483 355.065 245.103 355.297C245.728 355.524 246.273 355.867 246.737 356.327C247.206 356.786 247.57 357.364 247.831 358.06C248.091 358.751 248.221 359.561 248.221 360.489V361.32H239.01V359.445H245.373C245.373 359.009 245.279 358.623 245.089 358.287C244.9 357.951 244.637 357.688 244.301 357.499C243.969 357.304 243.583 357.207 243.143 357.207C242.684 357.207 242.277 357.314 241.922 357.527C241.571 357.735 241.297 358.017 241.098 358.372C240.899 358.723 240.797 359.113 240.792 359.544V361.327C240.792 361.866 240.892 362.333 241.091 362.726C241.294 363.119 241.581 363.422 241.95 363.635C242.319 363.848 242.757 363.955 243.264 363.955C243.6 363.955 243.908 363.907 244.187 363.812C244.467 363.718 244.706 363.576 244.904 363.386C245.103 363.197 245.255 362.965 245.359 362.69L248.157 362.875C248.015 363.547 247.724 364.134 247.284 364.636C246.848 365.134 246.285 365.522 245.593 365.801C244.907 366.076 244.114 366.213 243.214 366.213ZM255.998 355.091V357.364H249.429V355.091H255.998ZM250.92 352.477H253.946V362.648C253.946 362.927 253.988 363.145 254.074 363.301C254.159 363.453 254.277 363.559 254.429 363.621C254.585 363.682 254.765 363.713 254.968 363.713C255.11 363.713 255.252 363.701 255.395 363.678C255.537 363.649 255.645 363.628 255.721 363.614L256.197 365.865C256.046 365.912 255.833 365.967 255.558 366.028C255.283 366.095 254.949 366.135 254.556 366.149C253.827 366.178 253.188 366.08 252.639 365.858C252.094 365.635 251.671 365.29 251.368 364.821C251.065 364.352 250.915 363.76 250.92 363.045V352.477ZM258.26 351.455H262.053L266.059 361.227H266.229L270.235 351.455H274.027V366H271.044V356.533H270.924L267.159 365.929H265.128L261.364 356.497H261.243V366H258.26V351.455ZM279.615 366.206C278.919 366.206 278.299 366.085 277.754 365.844C277.21 365.598 276.779 365.235 276.462 364.757C276.149 364.274 275.993 363.673 275.993 362.953C275.993 362.347 276.104 361.838 276.327 361.426C276.549 361.014 276.852 360.683 277.236 360.432C277.619 360.181 278.055 359.991 278.543 359.864C279.035 359.736 279.551 359.646 280.091 359.594C280.725 359.527 281.237 359.466 281.625 359.409C282.013 359.348 282.295 359.258 282.47 359.139C282.645 359.021 282.733 358.846 282.733 358.614V358.571C282.733 358.121 282.591 357.773 282.307 357.527C282.027 357.281 281.63 357.158 281.114 357.158C280.569 357.158 280.136 357.278 279.814 357.52C279.492 357.757 279.279 358.055 279.175 358.415L276.376 358.188C276.518 357.525 276.798 356.952 277.214 356.469C277.631 355.981 278.169 355.607 278.827 355.347C279.49 355.081 280.257 354.949 281.128 354.949C281.734 354.949 282.314 355.02 282.868 355.162C283.427 355.304 283.921 355.524 284.352 355.822C284.788 356.121 285.131 356.504 285.382 356.973C285.633 357.437 285.759 357.993 285.759 358.642V366H282.889V364.487H282.804C282.629 364.828 282.394 365.129 282.101 365.389C281.807 365.645 281.455 365.846 281.043 365.993C280.631 366.135 280.155 366.206 279.615 366.206ZM280.482 364.118C280.927 364.118 281.32 364.03 281.661 363.855C282.001 363.675 282.269 363.434 282.463 363.131C282.657 362.828 282.754 362.484 282.754 362.101V360.943C282.66 361.005 282.529 361.062 282.364 361.114C282.203 361.161 282.02 361.206 281.817 361.249C281.613 361.286 281.41 361.322 281.206 361.355C281.002 361.384 280.818 361.41 280.652 361.433C280.297 361.485 279.987 361.568 279.722 361.682C279.456 361.795 279.25 361.949 279.104 362.143C278.957 362.333 278.884 362.57 278.884 362.854C278.884 363.266 279.033 363.58 279.331 363.798C279.634 364.011 280.018 364.118 280.482 364.118ZM293.908 355.091V357.364H287.339V355.091H293.908ZM288.83 352.477H291.856V362.648C291.856 362.927 291.898 363.145 291.984 363.301C292.069 363.453 292.187 363.559 292.339 363.621C292.495 363.682 292.675 363.713 292.879 363.713C293.021 363.713 293.163 363.701 293.305 363.678C293.447 363.649 293.556 363.628 293.631 363.614L294.107 365.865C293.956 365.912 293.743 365.967 293.468 366.028C293.193 366.095 292.86 366.135 292.467 366.149C291.737 366.178 291.098 366.08 290.549 365.858C290.004 365.635 289.581 365.29 289.278 364.821C288.975 364.352 288.826 363.76 288.83 363.045V352.477ZM300.734 366.213C299.612 366.213 298.646 365.986 297.836 365.531C297.031 365.072 296.411 364.423 295.975 363.585C295.54 362.742 295.322 361.746 295.322 360.595C295.322 359.473 295.54 358.488 295.975 357.641C296.411 356.793 297.024 356.133 297.815 355.659C298.61 355.186 299.543 354.949 300.613 354.949C301.333 354.949 302.003 355.065 302.623 355.297C303.248 355.524 303.792 355.867 304.256 356.327C304.725 356.786 305.09 357.364 305.35 358.06C305.611 358.751 305.741 359.561 305.741 360.489V361.32H296.529V359.445H302.893C302.893 359.009 302.798 358.623 302.609 358.287C302.419 357.951 302.156 357.688 301.82 357.499C301.489 357.304 301.103 357.207 300.663 357.207C300.203 357.207 299.796 357.314 299.441 357.527C299.091 357.735 298.816 358.017 298.617 358.372C298.418 358.723 298.317 359.113 298.312 359.544V361.327C298.312 361.866 298.411 362.333 298.61 362.726C298.814 363.119 299.1 363.422 299.469 363.635C299.839 363.848 300.277 363.955 300.783 363.955C301.12 363.955 301.427 363.907 301.707 363.812C301.986 363.718 302.225 363.576 302.424 363.386C302.623 363.197 302.774 362.965 302.879 362.69L305.677 362.875C305.535 363.547 305.244 364.134 304.803 364.636C304.368 365.134 303.804 365.522 303.113 365.801C302.426 366.076 301.633 366.213 300.734 366.213ZM309.484 366.185C309.015 366.185 308.612 366.019 308.276 365.688C307.945 365.351 307.779 364.949 307.779 364.48C307.779 364.016 307.945 363.618 308.276 363.287C308.612 362.955 309.015 362.79 309.484 362.79C309.938 362.79 310.336 362.955 310.677 363.287C311.018 363.618 311.188 364.016 311.188 364.48C311.188 364.793 311.108 365.079 310.947 365.339C310.79 365.595 310.585 365.801 310.329 365.957C310.073 366.109 309.791 366.185 309.484 366.185Z" fill="black"/>
</svg>
