<svg width="500" height="500" viewBox="0 0 500 500" fill="none" xmlns="http://www.w3.org/2000/svg">
<rect width="500" height="500" fill="white"/>
<path d="M237.203 163.094C297.79 146.293 357.475 193.384 354.919 256.492L354.497 266.899L354.384 269.707L351.575 269.777L142.075 274.999L139 275.076V191.943L141.154 191.311L235.771 163.502L237.203 163.094Z" fill="#44E9D2" stroke="black" stroke-width="6"/>
<path d="M242.991 175.721C291.244 162.558 338.714 197.59 340.207 247.466L337.209 247.589L337.299 250.587L157.897 257.896L156.146 199.413L158.456 198.782L242.991 175.721Z" fill="#379C90" stroke="black" stroke-width="6"/>
<path d="M265.922 210C317.284 210 358.922 251.638 358.922 303V336.307H139V210H265.922Z" fill="#FFCC00" stroke="black" stroke-width="6"/>
<mask id="mask0_3_57" style="mask-type:alpha" maskUnits="userSpaceOnUse" x="142" y="213" width="214" height="121">
<path d="M142 213H265.922C315.628 213 355.922 253.294 355.922 303V333.307H142V213Z" fill="#FFCC00"/>
</mask>
<g mask="url(#mask0_3_57)">
<rect x="293" y="270" width="66" height="26" fill="#FFD591" stroke="black" stroke-width="6"/>
</g>
<circle cx="305.5" cy="283.5" r="2.5" fill="#FF8000" stroke="#FF8000" stroke-width="4"/>
<path d="M197.264 365V350.455H203.088C204.158 350.455 205.051 350.613 205.766 350.93C206.481 351.248 207.018 351.688 207.378 352.251C207.738 352.81 207.918 353.454 207.918 354.183C207.918 354.751 207.804 355.251 207.577 355.682C207.349 356.108 207.037 356.458 206.639 356.733C206.246 357.003 205.796 357.195 205.29 357.308V357.45C205.844 357.474 206.362 357.63 206.845 357.919C207.333 358.208 207.728 358.613 208.031 359.134C208.334 359.65 208.486 360.265 208.486 360.98C208.486 361.752 208.294 362.441 207.911 363.047C207.532 363.648 206.971 364.124 206.227 364.474C205.484 364.825 204.568 365 203.479 365H197.264ZM200.339 362.486H202.847C203.704 362.486 204.329 362.322 204.722 361.996C205.115 361.664 205.311 361.224 205.311 360.675C205.311 360.272 205.214 359.917 205.02 359.609C204.826 359.302 204.549 359.06 204.189 358.885C203.834 358.71 203.41 358.622 202.918 358.622H200.339V362.486ZM200.339 356.541H202.619C203.041 356.541 203.415 356.468 203.741 356.321C204.073 356.17 204.333 355.956 204.523 355.682C204.717 355.407 204.814 355.078 204.814 354.695C204.814 354.169 204.627 353.745 204.253 353.423C203.884 353.101 203.358 352.94 202.676 352.94H200.339V356.541ZM217.426 360.355V354.091H220.451V365H217.547V363.018H217.433C217.187 363.658 216.777 364.171 216.204 364.56C215.636 364.948 214.942 365.142 214.123 365.142C213.394 365.142 212.752 364.976 212.199 364.645C211.645 364.313 211.211 363.842 210.899 363.232C210.591 362.621 210.435 361.889 210.43 361.037V354.091H213.456V360.497C213.46 361.141 213.633 361.65 213.974 362.024C214.315 362.398 214.772 362.585 215.345 362.585C215.709 362.585 216.05 362.502 216.368 362.337C216.685 362.166 216.94 361.915 217.135 361.584C217.333 361.252 217.431 360.843 217.426 360.355ZM226.891 365.178C226.063 365.178 225.312 364.964 224.64 364.538C223.972 364.107 223.442 363.475 223.049 362.642C222.661 361.804 222.467 360.777 222.467 359.56C222.467 358.31 222.668 357.27 223.07 356.442C223.473 355.608 224.008 354.986 224.675 354.574C225.348 354.157 226.084 353.949 226.884 353.949C227.495 353.949 228.004 354.053 228.411 354.261C228.823 354.465 229.155 354.721 229.406 355.028C229.661 355.331 229.855 355.63 229.988 355.923H230.08V350.455H233.099V365H230.116V363.253H229.988C229.846 363.556 229.645 363.857 229.384 364.155C229.129 364.448 228.795 364.692 228.383 364.886C227.976 365.08 227.478 365.178 226.891 365.178ZM227.85 362.77C228.338 362.77 228.75 362.637 229.086 362.372C229.427 362.102 229.687 361.726 229.867 361.243C230.052 360.76 230.144 360.194 230.144 359.545C230.144 358.897 230.054 358.333 229.874 357.855C229.694 357.377 229.434 357.008 229.093 356.747C228.752 356.487 228.338 356.357 227.85 356.357C227.353 356.357 226.934 356.491 226.593 356.761C226.252 357.031 225.994 357.405 225.819 357.884C225.644 358.362 225.556 358.916 225.556 359.545C225.556 360.18 225.644 360.741 225.819 361.229C225.999 361.712 226.257 362.09 226.593 362.365C226.934 362.635 227.353 362.77 227.85 362.77ZM240.501 369.318C239.521 369.318 238.681 369.183 237.98 368.913C237.284 368.648 236.73 368.286 236.318 367.827C235.906 367.367 235.638 366.851 235.515 366.278L238.314 365.902C238.399 366.12 238.534 366.323 238.718 366.513C238.903 366.702 239.147 366.854 239.45 366.967C239.758 367.086 240.132 367.145 240.572 367.145C241.23 367.145 241.772 366.984 242.199 366.662C242.629 366.345 242.845 365.812 242.845 365.064V363.068H242.717C242.584 363.371 242.386 363.658 242.12 363.928C241.855 364.197 241.514 364.418 241.098 364.588C240.681 364.759 240.184 364.844 239.606 364.844C238.787 364.844 238.041 364.654 237.369 364.276C236.701 363.892 236.169 363.307 235.771 362.521C235.378 361.731 235.181 360.732 235.181 359.524C235.181 358.288 235.383 357.256 235.785 356.428C236.188 355.599 236.723 354.979 237.39 354.567C238.063 354.155 238.799 353.949 239.599 353.949C240.21 353.949 240.721 354.053 241.133 354.261C241.545 354.465 241.877 354.721 242.127 355.028C242.383 355.331 242.58 355.63 242.717 355.923H242.831V354.091H245.835V365.107C245.835 366.035 245.608 366.811 245.153 367.436C244.699 368.061 244.069 368.53 243.264 368.842C242.464 369.16 241.543 369.318 240.501 369.318ZM240.565 362.571C241.053 362.571 241.465 362.45 241.801 362.209C242.142 361.963 242.402 361.612 242.582 361.158C242.767 360.698 242.859 360.149 242.859 359.51C242.859 358.871 242.769 358.317 242.589 357.848C242.409 357.375 242.149 357.008 241.808 356.747C241.467 356.487 241.053 356.357 240.565 356.357C240.068 356.357 239.649 356.491 239.308 356.761C238.967 357.027 238.709 357.396 238.534 357.869C238.359 358.343 238.271 358.89 238.271 359.51C238.271 360.14 238.359 360.684 238.534 361.143C238.714 361.598 238.972 361.951 239.308 362.202C239.649 362.448 240.068 362.571 240.565 362.571ZM253.214 365.213C252.092 365.213 251.126 364.986 250.316 364.531C249.511 364.072 248.891 363.423 248.456 362.585C248.02 361.742 247.802 360.746 247.802 359.595C247.802 358.473 248.02 357.488 248.456 356.641C248.891 355.793 249.504 355.133 250.295 354.659C251.091 354.186 252.023 353.949 253.093 353.949C253.813 353.949 254.483 354.065 255.103 354.297C255.728 354.524 256.273 354.867 256.737 355.327C257.206 355.786 257.57 356.364 257.831 357.06C258.091 357.751 258.221 358.561 258.221 359.489V360.32H249.01V358.445H255.373C255.373 358.009 255.279 357.623 255.089 357.287C254.9 356.951 254.637 356.688 254.301 356.499C253.969 356.304 253.583 356.207 253.143 356.207C252.684 356.207 252.277 356.314 251.922 356.527C251.571 356.735 251.297 357.017 251.098 357.372C250.899 357.723 250.797 358.113 250.792 358.544V360.327C250.792 360.866 250.892 361.333 251.091 361.726C251.294 362.119 251.581 362.422 251.95 362.635C252.319 362.848 252.757 362.955 253.264 362.955C253.6 362.955 253.908 362.907 254.187 362.812C254.467 362.718 254.706 362.576 254.904 362.386C255.103 362.197 255.255 361.965 255.359 361.69L258.157 361.875C258.015 362.547 257.724 363.134 257.284 363.636C256.848 364.134 256.285 364.522 255.593 364.801C254.907 365.076 254.114 365.213 253.214 365.213ZM265.998 354.091V356.364H259.429V354.091H265.998ZM260.92 351.477H263.946V361.648C263.946 361.927 263.988 362.145 264.074 362.301C264.159 362.453 264.277 362.559 264.429 362.621C264.585 362.682 264.765 362.713 264.968 362.713C265.11 362.713 265.252 362.701 265.395 362.678C265.537 362.649 265.645 362.628 265.721 362.614L266.197 364.865C266.046 364.912 265.833 364.967 265.558 365.028C265.283 365.095 264.949 365.135 264.556 365.149C263.827 365.178 263.188 365.08 262.639 364.858C262.094 364.635 261.671 364.29 261.368 363.821C261.065 363.352 260.915 362.76 260.92 362.045V351.477ZM268.26 350.455H272.053L276.059 360.227H276.229L280.235 350.455H284.027V365H281.044V355.533H280.924L277.159 364.929H275.128L271.364 355.497H271.243V365H268.26V350.455ZM289.615 365.206C288.919 365.206 288.299 365.085 287.754 364.844C287.21 364.598 286.779 364.235 286.462 363.757C286.149 363.274 285.993 362.673 285.993 361.953C285.993 361.347 286.104 360.838 286.327 360.426C286.549 360.014 286.852 359.683 287.236 359.432C287.619 359.181 288.055 358.991 288.543 358.864C289.035 358.736 289.551 358.646 290.091 358.594C290.725 358.527 291.237 358.466 291.625 358.409C292.013 358.348 292.295 358.258 292.47 358.139C292.645 358.021 292.733 357.846 292.733 357.614V357.571C292.733 357.121 292.591 356.773 292.307 356.527C292.027 356.281 291.63 356.158 291.114 356.158C290.569 356.158 290.136 356.278 289.814 356.52C289.492 356.757 289.279 357.055 289.175 357.415L286.376 357.188C286.518 356.525 286.798 355.952 287.214 355.469C287.631 354.981 288.169 354.607 288.827 354.347C289.49 354.081 290.257 353.949 291.128 353.949C291.734 353.949 292.314 354.02 292.868 354.162C293.427 354.304 293.921 354.524 294.352 354.822C294.788 355.121 295.131 355.504 295.382 355.973C295.633 356.437 295.759 356.993 295.759 357.642V365H292.889V363.487H292.804C292.629 363.828 292.394 364.129 292.101 364.389C291.807 364.645 291.455 364.846 291.043 364.993C290.631 365.135 290.155 365.206 289.615 365.206ZM290.482 363.118C290.927 363.118 291.32 363.03 291.661 362.855C292.001 362.675 292.269 362.434 292.463 362.131C292.657 361.828 292.754 361.484 292.754 361.101V359.943C292.66 360.005 292.529 360.062 292.364 360.114C292.203 360.161 292.02 360.206 291.817 360.249C291.613 360.286 291.41 360.322 291.206 360.355C291.002 360.384 290.818 360.41 290.652 360.433C290.297 360.485 289.987 360.568 289.722 360.682C289.456 360.795 289.25 360.949 289.104 361.143C288.957 361.333 288.884 361.57 288.884 361.854C288.884 362.266 289.033 362.58 289.331 362.798C289.634 363.011 290.018 363.118 290.482 363.118ZM303.908 354.091V356.364H297.339V354.091H303.908ZM298.83 351.477H301.856V361.648C301.856 361.927 301.898 362.145 301.984 362.301C302.069 362.453 302.187 362.559 302.339 362.621C302.495 362.682 302.675 362.713 302.879 362.713C303.021 362.713 303.163 362.701 303.305 362.678C303.447 362.649 303.556 362.628 303.631 362.614L304.107 364.865C303.956 364.912 303.743 364.967 303.468 365.028C303.193 365.095 302.86 365.135 302.467 365.149C301.737 365.178 301.098 365.08 300.549 364.858C300.004 364.635 299.581 364.29 299.278 363.821C298.975 363.352 298.826 362.76 298.83 362.045V351.477ZM310.734 365.213C309.612 365.213 308.646 364.986 307.836 364.531C307.031 364.072 306.411 363.423 305.975 362.585C305.54 361.742 305.322 360.746 305.322 359.595C305.322 358.473 305.54 357.488 305.975 356.641C306.411 355.793 307.024 355.133 307.815 354.659C308.61 354.186 309.543 353.949 310.613 353.949C311.333 353.949 312.003 354.065 312.623 354.297C313.248 354.524 313.792 354.867 314.256 355.327C314.725 355.786 315.09 356.364 315.35 357.06C315.611 357.751 315.741 358.561 315.741 359.489V360.32H306.529V358.445H312.893C312.893 358.009 312.798 357.623 312.609 357.287C312.419 356.951 312.156 356.688 311.82 356.499C311.489 356.304 311.103 356.207 310.663 356.207C310.203 356.207 309.796 356.314 309.441 356.527C309.091 356.735 308.816 357.017 308.617 357.372C308.418 357.723 308.317 358.113 308.312 358.544V360.327C308.312 360.866 308.411 361.333 308.61 361.726C308.814 362.119 309.1 362.422 309.469 362.635C309.839 362.848 310.277 362.955 310.783 362.955C311.12 362.955 311.427 362.907 311.707 362.812C311.986 362.718 312.225 362.576 312.424 362.386C312.623 362.197 312.774 361.965 312.879 361.69L315.677 361.875C315.535 362.547 315.244 363.134 314.803 363.636C314.368 364.134 313.804 364.522 313.113 364.801C312.426 365.076 311.633 365.213 310.734 365.213ZM319.484 365.185C319.015 365.185 318.612 365.019 318.276 364.688C317.945 364.351 317.779 363.949 317.779 363.48C317.779 363.016 317.945 362.618 318.276 362.287C318.612 361.955 319.015 361.79 319.484 361.79C319.938 361.79 320.336 361.955 320.677 362.287C321.018 362.618 321.188 363.016 321.188 363.48C321.188 363.793 321.108 364.079 320.947 364.339C320.79 364.595 320.585 364.801 320.329 364.957C320.073 365.109 319.791 365.185 319.484 365.185Z" fill="black"/>
</svg>
